<svg width="24" height="16" viewBox="0 0 24 16" fill="none" xmlns="http://www.w3.org/2000/svg">
  <rect width="24" height="16" rx="2" fill="#B22234"/>
  <!-- Franjas rojas y blancas -->
  <rect y="1" width="24" height="1" fill="#FFFFFF"/>
  <rect y="3" width="24" height="1" fill="#FFFFFF"/>
  <rect y="5" width="24" height="1" fill="#FFFFFF"/>
  <rect y="7" width="24" height="1" fill="#FFFFFF"/>
  <rect y="9" width="24" height="1" fill="#FFFFFF"/>
  <rect y="11" width="24" height="1" fill="#FFFFFF"/>
  <rect y="13" width="24" height="1" fill="#FFFFFF"/>
  <rect y="15" width="24" height="1" fill="#FFFFFF"/>
  <!-- Cuadro azul -->
  <rect width="10" height="8" fill="#3C3B6E"/>
  <!-- Estrellas simplificadas -->
  <g fill="#FFFFFF">
    <circle cx="1.5" cy="1.5" r="0.3"/>
    <circle cx="3" cy="1.5" r="0.3"/>
    <circle cx="4.5" cy="1.5" r="0.3"/>
    <circle cx="6" cy="1.5" r="0.3"/>
    <circle cx="7.5" cy="1.5" r="0.3"/>
    <circle cx="9" cy="1.5" r="0.3"/>
    
    <circle cx="2.25" cy="2.5" r="0.3"/>
    <circle cx="3.75" cy="2.5" r="0.3"/>
    <circle cx="5.25" cy="2.5" r="0.3"/>
    <circle cx="6.75" cy="2.5" r="0.3"/>
    <circle cx="8.25" cy="2.5" r="0.3"/>
    
    <circle cx="1.5" cy="3.5" r="0.3"/>
    <circle cx="3" cy="3.5" r="0.3"/>
    <circle cx="4.5" cy="3.5" r="0.3"/>
    <circle cx="6" cy="3.5" r="0.3"/>
    <circle cx="7.5" cy="3.5" r="0.3"/>
    <circle cx="9" cy="3.5" r="0.3"/>
    
    <circle cx="2.25" cy="4.5" r="0.3"/>
    <circle cx="3.75" cy="4.5" r="0.3"/>
    <circle cx="5.25" cy="4.5" r="0.3"/>
    <circle cx="6.75" cy="4.5" r="0.3"/>
    <circle cx="8.25" cy="4.5" r="0.3"/>
    
    <circle cx="1.5" cy="5.5" r="0.3"/>
    <circle cx="3" cy="5.5" r="0.3"/>
    <circle cx="4.5" cy="5.5" r="0.3"/>
    <circle cx="6" cy="5.5" r="0.3"/>
    <circle cx="7.5" cy="5.5" r="0.3"/>
    <circle cx="9" cy="5.5" r="0.3"/>
    
    <circle cx="2.25" cy="6.5" r="0.3"/>
    <circle cx="3.75" cy="6.5" r="0.3"/>
    <circle cx="5.25" cy="6.5" r="0.3"/>
    <circle cx="6.75" cy="6.5" r="0.3"/>
    <circle cx="8.25" cy="6.5" r="0.3"/>
  </g>
</svg>
