<?xml version="1.0" encoding="UTF-8"?>
<svg id="Capa_1" data-name="Capa 1" xmlns="http://www.w3.org/2000/svg" xmlns:xlink="http://www.w3.org/1999/xlink" viewBox="0 0 523.06 290.72">
  <defs>
    <style>
      .cls-1, .cls-2 {
        fill: none;
      }

      .cls-1, .cls-3 {
        stroke: #fff;
        stroke-miterlimit: 10;
        stroke-width: 4.03px;
      }

      .cls-4 {
        fill: #802a28;
      }

      .cls-5 {
        clip-path: url(#clippath-4);
      }

      .cls-6 {
        fill: #be1924;
      }

      .cls-7 {
        fill: #822a28;
      }

      .cls-8, .cls-3 {
        fill: #fff;
      }

      .cls-9 {
        fill: #7f2a28;
      }

      .cls-10 {
        clip-path: url(#clippath-1);
      }

      .cls-11 {
        fill: #832a28;
      }

      .cls-12 {
        clip-path: url(#clippath-3);
      }

      .cls-13 {
        clip-path: url(#clippath-2);
      }

      .cls-14 {
        fill: #812a28;
      }

      .cls-15 {
        fill: #51af3d;
      }

      .cls-16 {
        fill: #016d47;
      }

      .cls-17 {
        clip-path: url(#clippath);
      }
    </style>
    <clipPath id="clippath">
      <path class="cls-3" d="M266.49,287.78c-55.57,0-109.53-6.5-156.04-18.79-45.59-12.05-82.01-29.08-105.32-49.24-.93-.8-1.46-1.97-1.46-3.2v-.31c0-.11-.01-.21-.01-.32v-49.6s0-49.6,0-49.6c0-.11,0-.22.01-.32v-.3c0-1.23.53-2.39,1.46-3.2,32.75-28.34,90.02-49.9,161.24-60.71,2.33-.35,4.48,1.24,4.83,3.55.35,2.31-1.24,4.47-3.55,4.82-67.6,10.26-124.1,31.18-155.51,57.51v48.27s0,48.27,0,48.27c46.95,39.37,146.41,64.73,254.36,64.73,22.56,0,45.04-1.09,66.81-3.22l1.54-.12c73.21-7.35,136.92-26.7,175.24-53.19v-112.94c-28.83-19.94-71.19-35.68-122.72-45.57-2.3-.44-3.8-2.66-3.36-4.95.44-2.29,2.66-3.79,4.96-3.36,53.78,10.32,97.98,27.01,127.81,48.24,1.11.79,1.78,2.08,1.78,3.44v117.33c0,1.37-.66,2.65-1.78,3.44-39.28,27.96-105.32,48.36-181.19,55.98l-1.55.12c-21.96,2.16-44.72,3.26-67.56,3.26Z"/>
    </clipPath>
    <clipPath id="clippath-1">
      <path class="cls-6" d="M280.93,49.23c-4.27,0-8.7,21.41-13.04,25.99,1.23-.24,2.28-.29,2.9-.29.39,0,.61.03.61.03,3.89-9.7,8.95-17.52,14.77-23.79.79-.73,4.07-1.21,8.68-1.51-4.6-.18-9.23-.32-13.89-.43h-.03ZM253.62,49.21c-108.72,1.97-201.67,28.76-245.72,66.89v.61h-.01s.01,49.62.01,49.62v49.6s0,.01,0,.01v.61c45.79,39.61,144.37,67,258.59,67,23.16,0,45.67-1.13,67.23-3.25l1.46-.11c76.46-7.67,140.81-27.91,179.16-55.21v-117.33c-29.1-20.71-73.17-37.36-126.15-47.53-11.52,16.91-25.43,26.25-25.43,26.25-33.91,23.33-66.13,27.06-83.27,27.06-8.07,0-12.8-.82-12.8-.82-14-26.61-7.1-34.47-1.04-36.75-4.07-2.58-7.96-26.66-12-26.66h-.01Z"/>
    </clipPath>
    <clipPath id="clippath-2">
      <rect class="cls-6" x="7.89" y="49.21" width="506.44" height="234.35"/>
    </clipPath>
    <clipPath id="clippath-3">
      <path class="cls-2" d="M286.17,51.17c-5.82,6.27-10.87,14.09-14.77,23.79,0,0-.23-.03-.61-.03-.62,0-1.67.05-2.9.29-.22.23-.43.41-.65.55t-.01.01s-.03.01-.04.03c0,0-.01,0-.02,0,0,0-.02.01-.03.02,0,0-.01.01-.02.01,0,0-.02.01-.03.01-.01,0-.02,0-.03.01-.01,0-.02.01-.03.02,0,0-.01,0-.02.01-.02,0-.03.01-.05.02-.01,0-.02,0-.03,0,0,0-.02.01-.03.01-.01,0-.02.01-.03.01t-.03.01s-.02,0-.03,0c-.01,0-.02,0-.03,0,0,0-.02,0-.03.01-.01,0-.02,0-.03,0,0,0-.01,0-.02,0-.01,0-.02,0-.03.01,0,0-.02,0-.03,0-.01,0-.03,0-.03.01h-.03s-.02,0-.03,0h-.03s-.02,0-.03,0h-.02s-.02,0-.03,0h-.01s-.03,0-.04,0h-.12c-.22-.01-.43-.09-.64-.21-6.06,2.28-12.96,10.14,1.04,36.75,0,0,4.74.82,12.8.82,17.14,0,49.36-3.73,83.27-27.06,0,0,13.91-9.34,25.43-26.25-16.83-3.24-34.57-5.82-53-7.67l-1.46-.11c-.5-.05-1.01-.11-1.52-.15-.07,0-.13-.01-.2-.01-.48-.05-.96-.09-1.44-.14-.02,0-.04,0-.06,0-1.06-.09-2.12-.19-3.17-.29-.02,0-.04,0-.05,0-1.56-.14-3.13-.27-4.71-.4-.09,0-.18-.01-.27-.02-.39-.03-.79-.06-1.19-.1-.14,0-.27-.01-.42-.03-.45-.03-.9-.07-1.36-.11-.23-.02-.47-.04-.71-.05-.21-.01-.41-.03-.62-.05-.32-.02-.63-.05-.96-.07-.09,0-.17-.01-.26-.02-7.22-.53-14.53-.94-21.93-1.24-4.61.3-7.89.78-8.68,1.51"/>
    </clipPath>
    <clipPath id="clippath-4">
      <rect class="cls-2" x="252.67" y="49.66" width="135.5" height="63.77"/>
    </clipPath>
  </defs>
  <g>
    <g>
      <path class="cls-8" d="M266.49,287.78c-55.57,0-109.53-6.5-156.04-18.79-45.59-12.05-82.01-29.08-105.32-49.24-.93-.8-1.46-1.97-1.46-3.2v-.31c0-.11-.01-.21-.01-.32v-49.6s0-49.6,0-49.6c0-.11,0-.22.01-.32v-.3c0-1.23.53-2.39,1.46-3.2,32.75-28.34,90.02-49.9,161.24-60.71,2.33-.35,4.48,1.24,4.83,3.55.35,2.31-1.24,4.47-3.55,4.82-67.6,10.26-124.1,31.18-155.51,57.51v48.27s0,48.27,0,48.27c46.95,39.37,146.41,64.73,254.36,64.73,22.56,0,45.04-1.09,66.81-3.22l1.54-.12c73.21-7.35,136.92-26.7,175.24-53.19v-112.94c-28.83-19.94-71.19-35.68-122.72-45.57-2.3-.44-3.8-2.66-3.36-4.95.44-2.29,2.66-3.79,4.96-3.36,53.78,10.32,97.98,27.01,127.81,48.24,1.11.79,1.78,2.08,1.78,3.44v117.33c0,1.37-.66,2.65-1.78,3.44-39.28,27.96-105.32,48.36-181.19,55.98l-1.55.12c-21.96,2.16-44.72,3.26-67.56,3.26Z"/>
      <g class="cls-17">
        <path class="cls-3" d="M514.32,287.78H7.89c-2.34,0-4.24-1.89-4.24-4.23V49.21c0-2.34,1.9-4.23,4.24-4.23s4.24,1.89,4.24,4.23v230.12h497.96V49.21c0-2.34,1.9-4.23,4.24-4.23s4.24,1.89,4.24,4.23v234.35c0,2.34-1.9,4.23-4.24,4.23Z"/>
      </g>
      <path class="cls-1" d="M266.49,287.78c-55.57,0-109.53-6.5-156.04-18.79-45.59-12.05-82.01-29.08-105.32-49.24-.93-.8-1.46-1.97-1.46-3.2v-.31c0-.11-.01-.21-.01-.32v-49.6s0-49.6,0-49.6c0-.11,0-.22.01-.32v-.3c0-1.23.53-2.39,1.46-3.2,32.75-28.34,90.02-49.9,161.24-60.71,2.33-.35,4.48,1.24,4.83,3.55.35,2.31-1.24,4.47-3.55,4.82-67.6,10.26-124.1,31.18-155.51,57.51v48.27s0,48.27,0,48.27c46.95,39.37,146.41,64.73,254.36,64.73,22.56,0,45.04-1.09,66.81-3.22l1.54-.12c73.21-7.35,136.92-26.7,175.24-53.19v-112.94c-28.83-19.94-71.19-35.68-122.72-45.57-2.3-.44-3.8-2.66-3.36-4.95.44-2.29,2.66-3.79,4.96-3.36,53.78,10.32,97.98,27.01,127.81,48.24,1.11.79,1.78,2.08,1.78,3.44v117.33c0,1.37-.66,2.65-1.78,3.44-39.28,27.96-105.32,48.36-181.19,55.98l-1.55.12c-21.96,2.16-44.72,3.26-67.56,3.26Z"/>
    </g>
    <path class="cls-8" d="M388.18,64.35c-.27,0-.54-.03-.81-.08-16.79-3.23-34.49-5.79-52.62-7.61-2.33-.24-4.03-2.31-3.79-4.63.23-2.32,2.3-4.01,4.64-3.79,18.38,1.85,36.34,4.45,53.38,7.73,2.3.44,3.8,2.66,3.36,4.95-.39,2.02-2.17,3.43-4.16,3.43Z"/>
    <path class="cls-3" d="M266.73,78.86c-.34,0-.68-.04-1.03-.13-2.27-.56-3.66-2.86-3.09-5.12,8.39-33.67,33.14-54.45,71.58-60.1,28.42-4.18,53.98,1.33,55.05,1.57,2.22.49,3.66,2.64,3.26,4.87-2.5,14.09-8.03,27.48-16.46,39.79-1.32,1.93-3.96,2.43-5.89,1.11-1.93-1.32-2.43-3.95-1.11-5.88,6.91-10.11,11.71-20.98,14.28-32.37-8.2-1.34-27.62-3.74-48.11-.68-35.13,5.23-56.79,23.31-64.37,53.74-.48,1.92-2.21,3.21-4.11,3.21Z"/>
    <path class="cls-3" d="M266.73,78.86c-2.26,0-4.13-1.77-4.23-4.04-.02-.27-.97-14.96-14.87-29.44-18.06-18.82-49.95-29.15-92.45-30.01,1.98,8.57,7.23,26.38,18.46,37.44,1.67,1.64,1.68,4.32.04,5.98-1.65,1.66-4.33,1.68-5.99.04-17.17-16.91-21.69-45.89-21.88-47.11-.18-1.22.18-2.46.98-3.39.81-.93,1.98-1.47,3.21-1.47h0c48.54.1,83.61,11.27,104.24,33.2,15.82,16.81,16.69,33.7,16.72,34.41.1,2.34-1.72,4.3-4.06,4.4-.06,0-.12,0-.18,0Z"/>
  </g>
  <g>
    <path class="cls-6" d="M280.93,49.23c-4.27,0-8.7,21.41-13.04,25.99,1.23-.24,2.28-.29,2.9-.29.39,0,.61.03.61.03,3.89-9.7,8.95-17.52,14.77-23.79.79-.73,4.07-1.21,8.68-1.51-4.6-.18-9.23-.32-13.89-.43h-.03ZM253.62,49.21c-108.72,1.97-201.67,28.76-245.72,66.89v.61h-.01s.01,49.62.01,49.62v49.6s0,.01,0,.01v.61c45.79,39.61,144.37,67,258.59,67,23.16,0,45.67-1.13,67.23-3.25l1.46-.11c76.46-7.67,140.81-27.91,179.16-55.21v-117.33c-29.1-20.71-73.17-37.36-126.15-47.53-11.52,16.91-25.43,26.25-25.43,26.25-33.91,23.33-66.13,27.06-83.27,27.06-8.07,0-12.8-.82-12.8-.82-14-26.61-7.1-34.47-1.04-36.75-4.07-2.58-7.96-26.66-12-26.66h-.01Z"/>
    <g class="cls-10">
      <g>
        <rect class="cls-6" x="7.89" y="49.21" width="506.44" height="234.35"/>
        <g class="cls-13">
          <rect class="cls-6" x="7.89" y="49.21" width="8.61" height="234.35"/>
          <rect class="cls-6" x="16.5" y="49.21" width="8.61" height="234.35"/>
          <rect class="cls-6" x="25.12" y="49.21" width="8.61" height="234.35"/>
          <rect class="cls-6" x="33.73" y="49.21" width="8.61" height="234.35"/>
          <rect class="cls-6" x="42.35" y="49.21" width="8.61" height="234.35"/>
          <rect class="cls-6" x="50.96" y="49.21" width="8.61" height="234.35"/>
          <rect class="cls-6" x="59.58" y="49.21" width="8.61" height="234.35"/>
          <rect class="cls-6" x="68.19" y="49.21" width="8.61" height="234.35"/>
          <rect class="cls-6" x="76.81" y="49.21" width="8.61" height="234.35"/>
          <rect class="cls-6" x="85.42" y="49.21" width="8.61" height="234.35"/>
          <rect class="cls-6" x="94.03" y="49.21" width="8.61" height="234.35"/>
          <rect class="cls-6" x="102.65" y="49.21" width="8.61" height="234.35"/>
          <rect class="cls-6" x="111.26" y="49.21" width="8.61" height="234.35"/>
          <rect class="cls-6" x="119.88" y="49.21" width="8.61" height="234.35"/>
          <rect class="cls-6" x="128.49" y="49.21" width="8.61" height="234.35"/>
          <rect class="cls-6" x="137.11" y="49.21" width="8.61" height="234.35"/>
          <rect class="cls-6" x="145.72" y="49.21" width="8.61" height="234.35"/>
          <rect class="cls-6" x="154.34" y="49.21" width="8.61" height="234.35"/>
          <rect class="cls-6" x="162.95" y="49.21" width="8.61" height="234.35"/>
          <rect class="cls-6" x="171.57" y="49.21" width="8.61" height="234.35"/>
          <rect class="cls-6" x="180.18" y="49.21" width="8.61" height="234.35"/>
          <rect class="cls-6" x="188.8" y="49.21" width="8.61" height="234.35"/>
          <rect class="cls-6" x="197.41" y="49.21" width="8.61" height="234.35"/>
          <rect class="cls-6" x="206.03" y="49.21" width="8.61" height="234.35"/>
          <rect class="cls-6" x="214.64" y="49.21" width="8.61" height="234.35"/>
          <rect class="cls-6" x="223.26" y="49.21" width="8.61" height="234.35"/>
          <rect class="cls-6" x="231.87" y="49.21" width="8.61" height="234.35"/>
          <rect class="cls-6" x="240.49" y="49.21" width="8.61" height="234.35"/>
          <rect class="cls-6" x="249.1" y="49.21" width="8.61" height="234.35"/>
          <rect class="cls-6" x="257.71" y="49.21" width="8.61" height="234.35"/>
          <rect class="cls-6" x="266.33" y="49.21" width="8.61" height="234.35"/>
          <rect class="cls-6" x="274.94" y="49.21" width="8.61" height="234.35"/>
          <rect class="cls-6" x="283.56" y="49.21" width="8.61" height="234.35"/>
          <rect class="cls-6" x="292.17" y="49.21" width="8.61" height="234.35"/>
          <rect class="cls-6" x="300.79" y="49.21" width="8.61" height="234.35"/>
          <rect class="cls-6" x="309.4" y="49.21" width="8.61" height="234.35"/>
          <rect class="cls-6" x="318.02" y="49.21" width="8.61" height="234.35"/>
          <rect class="cls-6" x="326.63" y="49.21" width="8.61" height="234.35"/>
          <rect class="cls-6" x="335.25" y="49.21" width="8.61" height="234.35"/>
          <rect class="cls-6" x="343.86" y="49.21" width="8.61" height="234.35"/>
          <rect class="cls-6" x="352.48" y="49.21" width="8.61" height="234.35"/>
          <rect class="cls-6" x="361.09" y="49.21" width="8.61" height="234.35"/>
          <rect class="cls-6" x="369.71" y="49.21" width="8.61" height="234.35"/>
          <rect class="cls-6" x="378.32" y="49.21" width="8.61" height="234.35"/>
          <rect class="cls-6" x="386.94" y="49.21" width="8.61" height="234.35"/>
          <rect class="cls-6" x="395.55" y="49.21" width="8.61" height="234.35"/>
          <rect class="cls-6" x="404.17" y="49.21" width="8.61" height="234.35"/>
          <rect class="cls-6" x="412.78" y="49.21" width="8.61" height="234.35"/>
          <rect class="cls-6" x="421.4" y="49.21" width="8.61" height="234.35"/>
          <rect class="cls-6" x="430.01" y="49.21" width="8.61" height="234.35"/>
          <rect class="cls-6" x="438.62" y="49.21" width="8.61" height="234.35"/>
          <rect class="cls-6" x="447.24" y="49.21" width="8.61" height="234.35"/>
          <rect class="cls-6" x="455.85" y="49.21" width="8.61" height="234.35"/>
          <rect class="cls-6" x="464.47" y="49.21" width="8.61" height="234.35"/>
          <rect class="cls-6" x="473.08" y="49.21" width="8.61" height="234.35"/>
          <rect class="cls-6" x="481.7" y="49.21" width="8.61" height="234.35"/>
          <rect class="cls-6" x="490.31" y="49.21" width="8.61" height="234.35"/>
          <rect class="cls-6" x="498.93" y="49.21" width="8.61" height="234.35"/>
          <rect class="cls-6" x="507.54" y="49.21" width="6.78" height="234.35"/>
        </g>
      </g>
    </g>
  </g>
  <g class="cls-12">
    <g class="cls-5">
      <rect class="cls-11" x="252.67" y="49.66" width="4.08" height="63.77"/>
      <rect class="cls-11" x="256.76" y="49.66" width="9.57" height="63.77"/>
      <rect class="cls-11" x="266.33" y="49.66" width="9.57" height="63.77"/>
      <rect class="cls-11" x="275.9" y="49.66" width="9.57" height="63.77"/>
      <rect class="cls-11" x="285.47" y="49.66" width="9.57" height="63.77"/>
      <rect class="cls-11" x="295.04" y="49.66" width="9.57" height="63.77"/>
      <rect class="cls-11" x="304.61" y="49.66" width="9.57" height="63.77"/>
      <rect class="cls-7" x="314.19" y="49.66" width="9.57" height="63.77"/>
      <rect class="cls-7" x="323.76" y="49.66" width="9.57" height="63.77"/>
      <rect class="cls-7" x="333.33" y="49.66" width="9.57" height="63.77"/>
      <rect class="cls-14" x="342.9" y="49.66" width="9.57" height="63.77"/>
      <rect class="cls-14" x="352.47" y="49.66" width="9.57" height="63.77"/>
      <rect class="cls-4" x="362.05" y="49.66" width="9.57" height="63.77"/>
      <rect class="cls-4" x="371.62" y="49.66" width="9.57" height="63.77"/>
      <rect class="cls-9" x="381.19" y="49.66" width="6.98" height="63.77"/>
    </g>
  </g>
  <g>
    <path class="cls-8" d="M216.04,144.71c-9.72.39-20.03,13.07-30.16,31.7,1.78-4.97,3.97-15.06,4.56-19.22,1.19-9.31-1.39-12.28-7.93-12.08-5.76,0-12.3,1.4-23.24,6.74,2.59,4.57,2.99,11.68,2,17.83-2,11.87-9.54,39.4-14.7,56.04,24.22,4.37,29.19,3.17,31.57-6.14,2.98-11.49,6.75-21.8,10.32-29.72,3.57-8.11,9.92-16.23,16.87-16.43,3.57-.2,6.55,1.59,8.54,4.56,4.96-4.15,10.32-12.27,11.71-20.21,1.58-8.71-2.17-13.46-9.53-13.07M143.42,149.66c-3.37.79-10.12,1.19-16.07,1.39-6.75.39-23.62.2-30.78.2,3.57-12.68,7.74-27.13,8.94-33.86.99-4.95,2.82-10.5,1.59-10.5,10.1.02,16.27.19,25.2.39,10.72.19,16.67,3.96,18.46,10.1.39,1.58,1.98,1.39,2.78.19,3.57-5.15,7.15-15.44,6.15-20.99-1.39-7.15-5.16-10.31-18.45-10.31-9.72,0-42.47.61-56.56,1.39-10.13.61-16.68,2.19-21.24,15.26-.79,2.18-.6,2.77,1.6,2.77,2.76,0,4.57.6,5.96,1.38,2.38,1.2,1.97,3.38,2.76,6.94.59,2.77-.79,11.29-1.78,15.25-7.55,27.72-17.48,58.22-20.65,81.41-1.98,14.84.59,20.98,14.09,20.98,4.96,0,13.5-.98,17.67-1.97,2.99-.79,2.78-1.78,1.6-3.76-2.59-3.97-2.78-10.3-1.2-19.81,1.2-7.12,3.58-17.03,6.36-29.12.6-2.77,1.18-3.97,2.78-4.75l33.15.4c9.13.21,14.88-2.38,19.65-20.2.79-3.17.39-3.37-1.99-2.77M442.02,217c-5.76,0-7.15-5.74-7.15-10.7-.19-12.28,12.91-50.12,25.21-50.12,5.57,0,6.96,5.94,6.96,11.1,0,13.06-11.91,49.71-25.02,49.71M466.43,145.1c-29.38,0-56.33,20.01-59.6,48.78l-1.44,1.13c-7.74,7.52-22.44,20-37.52,20-8.54,0-12.9-5.55-11.91-17.42,1.4-17.05,11.12-40.81,22.23-40.81,5.36,0,5.96,6.73,5.16,14.06-.41,3.77.19,3.97,3.76,3.57,9.34-.99,20.85-4.95,20.85-14.26,0-11.88-11.12-15.06-24.21-15.06-25.87,0-52.96,21.11-56.75,49.88-5.56,6.01-11.19,11.11-14.51,13.1-5.96,3.57-8.34.2-6.35-7.14,2.59-9.89,8.54-26.74,12.1-38.21,4.18-13.67.21-17.63-9.51-17.63-4.78,0-12.91,1.19-19.26,3.97,1.38,3.17,1.19,8.92.2,12.48-2.19,8.13-4.57,16.23-7.95,23.18-7.13,14.65-18.64,27.33-24.2,27.33-3.77,0-4.77-4.56-3.18-9.9,4.35-15.45,10.91-33.68,12.3-42.19,1.59-9.5-1.19-14.86-10.33-14.86-5.15,0-13.7,1.59-21.24,5.16,2.59,3.95,2.59,9.9.79,17.63-2.38,10.1-7.54,23.77-9.72,33.27-3.37,14.66-.59,27.13,14.7,27.13,13.1,0,24.8-7.73,37.9-20.99-1.19,14.65,3.77,20.79,13.7,20.79,12.28,0,25.78-9.35,35.17-18.54,3.79,13.29,16.82,18.73,32.69,18.73s33.35-6.13,43.67-17.23c1.39-1.47,2.34-2.88,3.02-4.52,2.42,14.77,13.16,21.75,29.85,21.75,31.35,0,58.76-25.15,58.76-56.65,0-18.41-11.33-26.54-29.2-26.54"/>
    <path class="cls-15" d="M266.73,74.63s-2.62-63.31-116.73-63.55c0,0,4.3,28.62,20.66,44.73,0,0,67.72,17.35,96.01,56.8,0,0,47.46,1.59,92.11-39.23,0,0,23.46-19.87,29.54-54.17,0,0-102.18-22.51-121.6,55.42"/>
    <path class="cls-16" d="M236.32,71.7l2.45-1.43c-43.36-50.72-76.99-49.58-76.99-49.58,33,18.34,55.9,30.58,74.53,51.02"/>
    <path class="cls-16" d="M275.48,94.23s53.1-65.81,102.74-68.21c0,0-62.56,28.79-102.74,68.21"/>
  </g>
</svg>